<svg width="138" height="57" viewBox="0 0 138 57" fill="none" xmlns="http://www.w3.org/2000/svg">
<path d="M63.4932 17.9503H61.4902L67.8191 5.40479H69.9542L76.3144 17.9503H74.1758L72.2458 14.0025H67.3149L67.8469 12.6857H71.599L68.8171 6.99967L63.4897 17.9473L63.4932 17.9503Z" fill="#A31B37"/>
<path d="M82.4976 7.24561H83.7077L84.125 8.73807H87.0842V10.0549H84.4275V15.3459C84.4275 16.2062 84.8691 16.6364 85.7524 16.6364H87.0877V17.9533H85.2517C83.4156 17.9533 82.501 17.1251 82.501 15.4717V7.24561H82.4976Z" fill="#A31B37"/>
<path d="M98.5421 8.73828V17.9506H97.2172L96.8834 16.7742C95.555 17.5584 94.2197 17.9506 92.8809 17.9506C90.3633 17.9506 89.1079 16.8064 89.1079 14.5208V8.73828H91.0379V14.5472C91.0379 15.9167 91.8446 16.5986 93.4546 16.5986C94.5605 16.5986 95.6106 16.2094 96.6121 15.431V8.73828H98.5421Z" fill="#A31B37"/>
<path d="M100.723 15.1681C100.723 13.2776 102.204 12.3353 105.163 12.3353C106.116 12.3353 107.065 12.3938 108.018 12.5109V11.6418C108.018 10.5824 107.034 10.0527 105.069 10.0527C103.943 10.0527 102.792 10.199 101.609 10.4917V9.1748C102.792 8.88216 103.946 8.73584 105.069 8.73584C108.321 8.73584 109.948 9.68985 109.948 11.5949V17.9452H108.863L108.196 17.0322C107.104 17.6409 105.918 17.9452 104.631 17.9452C102.023 17.9452 100.723 17.0175 100.723 15.1651V15.1681ZM105.163 13.6493C103.487 13.6493 102.649 14.1468 102.649 15.1417C102.649 16.1367 103.31 16.6342 104.631 16.6342C105.953 16.6342 107.093 16.3357 108.018 15.7387V13.8248C107.065 13.7078 106.113 13.6493 105.163 13.6493Z" fill="#A31B37"/>
<path d="M63.003 34.6011V22.0557H69.0502C72.0929 22.0557 73.616 23.1765 73.616 25.4152C73.616 27.8558 71.533 29.3424 67.3706 29.8809L66.9742 28.5113C70.0308 28.1309 71.5608 27.1213 71.5608 25.4854C71.5608 24.0924 70.6637 23.3989 68.8694 23.3989H64.9295V34.6011H62.9995H63.003Z" fill="#A31B37"/>
<path d="M80.0499 25.3896C83.1622 25.3896 84.7201 26.686 84.7201 29.2759C84.7201 29.6446 84.6888 30.0397 84.6262 30.4611H76.9446C76.9446 32.3457 78.2521 33.2851 80.8636 33.2851C82.1085 33.2851 83.2143 33.168 84.1776 32.9339V34.2508C83.2109 34.4849 82.0355 34.602 80.655 34.602C76.8959 34.602 75.0146 33.0305 75.0146 29.8905C75.0146 26.7504 76.6942 25.3896 80.0499 25.3896ZM76.9446 29.1091H82.8666C82.8249 27.4937 81.886 26.689 80.0534 26.689C78.1061 26.689 77.0698 27.4967 76.9481 29.1091H76.9446Z" fill="#A31B37"/>
<path d="M86.8857 23.8965H88.0959L88.5132 25.3889H91.4724V26.7058H88.8157V31.9968C88.8157 32.8571 89.2573 33.2873 90.1406 33.2873H91.4759V34.6042H89.6398C87.8038 34.6042 86.8892 33.776 86.8892 32.1226V23.9023L86.8857 23.8965Z" fill="#A31B37"/>
<path d="M93.392 34.163V32.7583C94.6786 33.1095 95.9757 33.2851 97.2901 33.2851C99.0358 33.2851 99.9051 32.8461 99.9051 31.9682C99.9051 31.1488 99.2966 30.7391 98.0795 30.7391H96.5147C94.15 30.7391 92.9712 29.8319 92.9712 28.0205C92.9712 26.209 94.4908 25.3896 97.5266 25.3896C98.8341 25.3896 100.128 25.536 101.414 25.8286V27.2333C100.128 26.8821 98.8341 26.7065 97.5266 26.7065C95.7044 26.7065 94.7968 27.1455 94.7968 28.0234C94.7968 28.8428 95.3706 29.2525 96.5181 29.2525H98.083C100.583 29.2525 101.835 30.1597 101.835 31.9711C101.835 33.7826 100.319 34.602 97.2901 34.602C95.9757 34.602 94.6786 34.4556 93.392 34.163Z" fill="#A31B37"/>
<path d="M104.016 34.6011V22.0557H105.946V26.3897C106.878 25.7224 108.012 25.3888 109.354 25.3888C112.084 25.3888 113.45 26.5331 113.45 28.8186V34.6011H111.52V28.7922C111.52 27.4227 110.71 26.7408 109.09 26.7408C107.984 26.7408 106.937 27.13 105.943 27.9085V34.6011H104.013H104.016Z" fill="#A31B37"/>
<path d="M115.63 29.9958C115.63 26.926 117.369 25.3896 120.843 25.3896C124.317 25.3896 126.056 26.926 126.056 29.9958C126.056 33.0656 124.317 34.5932 120.843 34.5932C117.369 34.5932 115.644 33.0597 115.63 29.9958ZM120.843 33.2851C123.034 33.2851 124.126 32.176 124.126 29.9607C124.126 27.7454 123.03 26.7065 120.843 26.7065C118.656 26.7065 117.56 27.7922 117.56 29.9607C117.56 32.1291 118.656 33.2851 120.843 33.2851Z" fill="#A31B37"/>
<path d="M128.232 25.7672C129.685 25.5155 131.184 25.3896 132.735 25.3896C136.244 25.3896 138 26.8499 138 29.7675C138 32.9895 136.233 34.602 132.704 34.602C131.828 34.602 130.979 34.4556 130.162 34.163V37.9351H128.232V25.7672ZM130.162 32.7232C130.92 33.0393 131.761 33.1973 132.693 33.1973C134.968 33.1973 136.101 32.0472 136.101 29.75C136.101 27.7425 134.971 26.7416 132.714 26.7416C131.741 26.7416 130.889 26.8119 130.162 26.9523V32.7261V32.7232Z" fill="#A31B37"/>
<path d="M125.861 43.9717C125.861 42.8451 126.535 42.2832 127.881 42.2832C129.227 42.2832 129.919 42.8451 129.919 43.9717C129.919 45.0984 129.241 45.6134 127.881 45.6134C126.522 45.6134 125.896 45.0662 125.861 43.9717ZM127.881 45.394C129.011 45.394 129.575 44.917 129.575 43.9659C129.575 43.0148 129.011 42.5056 127.881 42.5056C126.751 42.5056 126.202 42.9914 126.202 43.9659C126.202 44.9404 126.761 45.394 127.881 45.394ZM127.054 45.0311V42.9095H128.132C128.611 42.9095 128.851 43.0792 128.851 43.4157C128.851 43.6937 128.615 43.8986 128.145 44.0303L129.011 45.0311H128.584L127.78 44.0771V43.8986C128.264 43.8342 128.504 43.6762 128.504 43.4274C128.504 43.2314 128.368 43.1348 128.1 43.1348H127.38V45.0311H127.057H127.054Z" fill="#919700"/>
<path d="M71.2549 39.0175L70.9628 40.3256C73.8525 40.6241 75.3026 42.2717 75.3026 45.28C75.3026 48.6659 73.5222 50.3603 69.9648 50.3603C66.4074 50.3603 64.5122 48.6688 64.5122 45.28C64.5122 42.2366 66.0284 40.5831 69.0468 40.3139L69.3458 38.9707C64.773 39.1434 62.4814 41.2621 62.4814 45.3327C62.4814 49.4033 64.9747 51.6742 69.9648 51.6742C74.9549 51.6742 77.3334 49.5584 77.3334 45.3327C77.3334 41.4728 75.3026 39.3716 71.2514 39.0146L71.2549 39.0175Z" fill="#919700"/>
<path d="M85.0634 42.3799C83.7211 42.3799 82.4936 42.772 81.3739 43.5563L81.0296 42.3799H79.7256V51.5922H81.6555V44.8995C82.6501 44.1211 83.7002 43.7319 84.8026 43.7319C86.423 43.7319 87.2333 44.4167 87.2333 45.7833V51.5922H89.1632V45.8096C89.1632 43.5241 87.7966 42.3799 85.0669 42.3799H85.0634Z" fill="#919700"/>
<path d="M93.8924 39.0469H91.9624V51.5924H93.8924V39.0469Z" fill="#919700"/>
<path d="M98.8347 42.3799H96.9048V51.5922H98.8347V42.3799Z" fill="#919700"/>
<path d="M98.8347 39.0469H96.9048V40.5837H98.8347V39.0469Z" fill="#919700"/>
<path d="M107.079 42.3799C105.737 42.3799 104.506 42.772 103.39 43.5563L103.045 42.3799H101.741V51.5922H103.671V44.8995C104.666 44.1211 105.716 43.7319 106.818 43.7319C108.439 43.7319 109.249 44.4167 109.249 45.7833V51.5922H111.179V45.8096C111.179 43.5241 109.812 42.3799 107.082 42.3799H107.079Z" fill="#919700"/>
<path d="M123.061 46.2661C123.061 43.6763 121.503 42.3799 118.391 42.3799C115.036 42.3799 113.356 43.8811 113.356 46.8807C113.356 49.8802 115.237 51.5922 118.996 51.5922C120.38 51.5922 121.556 51.4751 122.519 51.241V49.9241C121.552 50.1583 120.446 50.2753 119.205 50.2753C116.593 50.2753 115.286 49.333 115.286 47.4513H122.967C123.03 47.0299 123.061 46.6349 123.061 46.2661ZM115.286 46.0993C115.411 44.484 116.447 43.6792 118.391 43.6792C120.227 43.6792 121.163 44.4869 121.204 46.0993H115.282H115.286Z" fill="#919700"/>
<path d="M45.5888 12.0361C45.5888 12.0361 38.8218 17.1661 38.8218 20.549C38.8218 23.9319 41.8506 26.6711 45.5888 26.6711C49.327 26.6711 52.3558 23.929 52.3558 20.549C52.3558 17.169 45.5888 12.0361 45.5888 12.0361Z" fill="#A31B37"/>
<path style="mix-blend-mode:multiply" opacity="0.7" d="M45.5888 12.0361C45.5888 12.0361 38.8218 17.1661 38.8218 20.549C38.8218 23.9319 41.8506 26.6711 45.5888 26.6711C49.327 26.6711 52.3558 23.929 52.3558 20.549C52.3558 17.169 45.5888 12.0361 45.5888 12.0361Z" fill="url(#paint0_radial_55_14117)"/>
<path d="M18.0024 0C18.0024 0 11.2354 5.12998 11.2354 8.5129C11.2354 11.8958 14.2642 14.6349 18.0024 14.6349C21.7406 14.6349 24.7694 11.8929 24.7694 8.5129C24.7694 5.13291 18.0024 0 18.0024 0Z" fill="#A31B37"/>
<path style="mix-blend-mode:multiply" opacity="0.7" d="M18.0024 0C18.0024 0 11.2354 5.12998 11.2354 8.5129C11.2354 11.8958 14.2642 14.6349 18.0024 14.6349C21.7406 14.6349 24.7694 11.8929 24.7694 8.5129C24.7694 5.13291 18.0024 0 18.0024 0Z" fill="url(#paint1_radial_55_14117)"/>
<path d="M6.767 12.0361C6.767 12.0361 0 17.1661 0 20.549C0 23.9319 3.02881 26.6711 6.767 26.6711C10.5052 26.6711 13.534 23.929 13.534 20.549C13.534 17.169 6.767 12.0361 6.767 12.0361Z" fill="#A31B37"/>
<path style="mix-blend-mode:multiply" opacity="0.7" d="M6.767 12.0361C6.767 12.0361 0 17.1661 0 20.549C0 23.9319 3.02881 26.6711 6.767 26.6711C10.5052 26.6711 13.534 23.929 13.534 20.549C13.534 17.169 6.767 12.0361 6.767 12.0361Z" fill="url(#paint2_radial_55_14117)"/>
<path d="M34.5541 0C34.5541 0 27.7871 5.12998 27.7871 8.5129C27.7871 11.8958 30.8159 14.6349 34.5541 14.6349C38.2923 14.6349 41.3211 11.8929 41.3211 8.5129C41.3211 5.13291 34.5541 0 34.5541 0Z" fill="#A31B37"/>
<path style="mix-blend-mode:multiply" opacity="0.7" d="M34.5541 0C34.5541 0 27.7871 5.12998 27.7871 8.5129C27.7871 11.8958 30.8159 14.6349 34.5541 14.6349C38.2923 14.6349 41.3211 11.8929 41.3211 8.5129C41.3211 5.13291 34.5541 0 34.5541 0Z" fill="url(#paint3_radial_55_14117)"/>
<path d="M25.6771 51.9989C25.684 51.2585 25.9066 50.5591 26.2926 49.9446C25.7327 49.4998 25.3606 48.894 25.305 48.2092C25.2181 47.2318 25.7675 46.3392 26.6855 45.8271C25.072 45.2682 23.8966 44.1708 23.4168 42.7193C22.9717 41.3702 22.5787 39.9626 22.231 38.7189L22.2066 38.637C22.071 38.1512 21.9389 37.68 21.8033 37.2089C21.612 36.5387 21.6607 35.4765 22.4118 34.6717C22.9543 34.0952 23.7576 33.7645 24.6199 33.7645H45.9781C45.1053 30.4752 41.461 27.9995 37.0794 27.9995C35.8102 27.9995 34.3705 28.4648 32.9344 29.1584C33.9289 27.9088 34.5131 26.3871 34.5131 24.7424C34.5131 20.5079 25.8683 14.0815 25.8683 14.0815C25.8683 14.0815 17.2235 20.5079 17.2235 24.7424C17.2235 26.3871 17.8077 27.9088 18.8023 29.1584C17.3661 28.4648 15.9265 27.9995 14.6572 27.9995C9.62543 27.9995 5.54297 31.2566 5.54297 35.2745C5.54297 39.2925 9.62195 42.5496 14.6572 42.5496C15.9299 42.5496 17.3661 42.0843 18.8023 41.3907C17.8077 42.6403 17.2235 44.162 17.2235 45.8066C17.2235 50.0411 25.8683 56.4675 25.8683 56.4675C25.8683 56.4675 26.4838 56.0081 27.374 55.2648C27.3219 55.2238 27.2662 55.1858 27.2141 55.1419C26.2126 54.2932 25.6632 53.1782 25.6701 51.9931L25.6771 51.9989Z" fill="#A31B37"/>
<path style="mix-blend-mode:multiply" d="M25.6771 51.9989C25.684 51.2585 25.9066 50.5591 26.2926 49.9446C25.7327 49.4998 25.3606 48.894 25.305 48.2092C25.2181 47.2318 25.7675 46.3392 26.6855 45.8271C25.072 45.2682 23.8966 44.1708 23.4168 42.7193C22.9717 41.3702 22.5787 39.9626 22.231 38.7189L22.2066 38.637C22.071 38.1512 21.9389 37.68 21.8033 37.2089C21.612 36.5387 21.6607 35.4765 22.4118 34.6717C22.9543 34.0952 23.7576 33.7645 24.6199 33.7645H45.9781C45.1053 30.4752 41.461 27.9995 37.0794 27.9995C35.8102 27.9995 34.3705 28.4648 32.9344 29.1584C33.9289 27.9088 34.5131 26.3871 34.5131 24.7424C34.5131 20.5079 25.8683 14.0815 25.8683 14.0815C25.8683 14.0815 17.2235 20.5079 17.2235 24.7424C17.2235 26.3871 17.8077 27.9088 18.8023 29.1584C17.3661 28.4648 15.9265 27.9995 14.6572 27.9995C9.62543 27.9995 5.54297 31.2566 5.54297 35.2745C5.54297 39.2925 9.62195 42.5496 14.6572 42.5496C15.9299 42.5496 17.3661 42.0843 18.8023 41.3907C17.8077 42.6403 17.2235 44.162 17.2235 45.8066C17.2235 50.0411 25.8683 56.4675 25.8683 56.4675C25.8683 56.4675 26.4838 56.0081 27.374 55.2648C27.3219 55.2238 27.2662 55.1858 27.2141 55.1419C26.2126 54.2932 25.6632 53.1782 25.6701 51.9931L25.6771 51.9989Z" fill="url(#paint4_radial_55_14117)"/>
<path d="M39.5827 49.9238H39.5792C38.8907 49.9238 38.237 50.1521 37.7397 50.5706C37.2424 50.989 36.9712 51.5421 36.9712 52.1245C36.9712 53.3272 38.1396 54.3076 39.5792 54.3076C41.0084 54.3076 42.1734 53.3331 42.1803 52.1333C42.1803 51.545 41.9126 50.989 41.4188 50.5706C40.9285 50.155 40.2782 49.9238 39.5862 49.9238H39.5827ZM39.5862 53.0843L39.5792 52.9614C39.0298 52.9614 38.5743 52.5868 38.5673 52.1245C38.5638 51.9109 38.6716 51.6943 38.8594 51.5333C39.0507 51.3695 39.3115 51.2758 39.5862 51.27C39.84 51.27 40.0835 51.3548 40.2712 51.5099C40.4694 51.6709 40.5772 51.8874 40.5772 52.1128C40.5772 52.5869 40.146 52.9585 39.5862 52.9614V53.0843Z" fill="#919700"/>
<path d="M31.342 49.9238H31.335C29.9093 49.9238 28.7374 50.9071 28.7305 52.1128C28.7305 52.6922 28.9982 53.2394 29.4885 53.6579C29.9858 54.0764 30.643 54.3076 31.3455 54.3076C32.7712 54.3076 33.9396 53.3272 33.95 52.1245C33.9535 51.5451 33.6823 50.9949 33.185 50.5764C32.6877 50.155 32.0305 49.9238 31.342 49.9238ZM32.3435 52.1157C32.3435 52.341 32.2426 52.5517 32.0549 52.7127C31.8671 52.8736 31.6132 52.9614 31.342 52.9614C30.7821 52.9614 30.3405 52.5927 30.337 52.1216C30.337 51.8991 30.4379 51.6884 30.6291 51.5246C30.8204 51.3607 31.0708 51.27 31.3455 51.27C31.6028 51.27 31.8497 51.3548 32.0375 51.5129C32.2322 51.6767 32.3435 51.8904 32.3435 52.1157Z" fill="#919700"/>
<path d="M53.5902 32.9271C52.4635 32.5555 51.2534 32.7896 50.2727 33.5709C48.7775 34.762 48.7079 35.7774 48.5966 37.4601C48.5445 38.2356 48.4819 39.1984 48.2593 40.3982C47.6647 43.6173 45.4844 44.0943 43.5614 44.0738C44.4307 41.8848 45.2931 39.6959 46.1555 37.504L46.8718 35.6838H24.8878C24.7 35.6838 24.5365 35.7511 24.4148 35.8828C24.1679 36.1462 24.1506 36.6085 24.2166 36.8397C24.3627 37.346 24.5018 37.8493 24.6478 38.3702C25.0095 39.6696 25.385 41.0128 25.8197 42.3209C26.2231 43.5383 27.3358 44.2991 28.9528 44.463C30.4829 44.6152 32.0408 44.7527 33.5499 44.8815L35.2191 45.0249C36.3771 45.1273 37.535 45.2268 38.693 45.3263L40.9185 45.5194C41.009 45.5282 41.0994 45.537 41.1863 45.5487C41.3358 45.5663 41.4854 45.5809 41.6453 45.5897C41.6453 45.5926 41.6488 45.5984 41.6523 45.6014C41.92 46.055 41.9444 46.4149 41.7357 46.7661C41.5201 47.129 41.1933 47.3133 40.7029 47.3514C40.6264 47.3572 40.5499 47.3572 40.4734 47.3543H29.0015C28.8277 47.3543 28.6642 47.3689 28.5216 47.3953C28.0626 47.4801 27.7636 47.8167 27.7983 48.2117C27.8331 48.6009 28.1739 48.9024 28.6329 48.9462C28.699 48.9521 28.7616 48.955 28.8311 48.955H35.612H40.4769C42.1878 48.955 43.4362 48.083 43.7422 46.6754C43.8083 46.3681 43.8048 46.0491 43.7283 45.7243C48.4471 45.8677 49.6398 42.9676 50.0328 42.0048C50.5892 40.6382 50.7004 38.897 50.7874 37.5011C50.8395 36.6554 50.8882 35.9238 51.0204 35.5199C51.1768 35.04 51.5698 34.6947 52.0671 34.601C52.3487 34.5454 52.6304 34.5893 52.7486 34.7064C52.8077 34.7649 52.8703 34.8352 52.9399 34.9112C53.2911 35.3004 53.8823 35.956 54.7099 35.5726C55.148 35.3707 55.3741 35.0371 55.3428 34.6332C55.2906 33.966 54.5569 33.249 53.5971 32.9301L53.5902 32.9271ZM44.2568 37.2641C43.4188 39.3974 42.5842 41.5278 41.7462 43.6612C41.672 43.8524 41.5225 43.9392 41.2976 43.9216C39.3815 43.7577 37.4655 43.5968 35.5495 43.43C34.548 43.3422 33.543 43.2544 32.5415 43.1666C31.4148 43.0671 30.2882 42.9676 29.1615 42.871C28.3791 42.8037 27.7914 42.397 27.5862 41.7766C27.4749 41.44 27.3776 41.1006 27.2837 40.7611L26.3378 37.2641H44.2603H44.2568Z" fill="#919700"/>
<defs>
<radialGradient id="paint0_radial_55_14117" cx="0" cy="0" r="1" gradientUnits="userSpaceOnUse" gradientTransform="translate(45.4431 19.2947) scale(13.0556 10.9869)">
<stop offset="0.12" stop-color="white" stop-opacity="0"/>
<stop offset="0.64" stop-opacity="0.5"/>
</radialGradient>
<radialGradient id="paint1_radial_55_14117" cx="0" cy="0" r="1" gradientUnits="userSpaceOnUse" gradientTransform="translate(17.9573 7.30096) scale(13.0556 10.9869)">
<stop offset="0.12" stop-color="white" stop-opacity="0"/>
<stop offset="0.64" stop-opacity="0.6"/>
</radialGradient>
<radialGradient id="paint2_radial_55_14117" cx="0" cy="0" r="1" gradientUnits="userSpaceOnUse" gradientTransform="translate(6.75817 19.2947) scale(13.0556 10.9869)">
<stop offset="0.12" stop-color="white" stop-opacity="0"/>
<stop offset="0.64" stop-opacity="0.6"/>
</radialGradient>
<radialGradient id="paint3_radial_55_14117" cx="0" cy="0" r="1" gradientUnits="userSpaceOnUse" gradientTransform="translate(34.4467 2.26064) scale(13.0556 10.9869)">
<stop offset="0.12" stop-color="white" stop-opacity="0"/>
<stop offset="0.64" stop-opacity="0.6"/>
</radialGradient>
<radialGradient id="paint4_radial_55_14117" cx="0" cy="0" r="1" gradientUnits="userSpaceOnUse" gradientTransform="translate(25.6901 34.8893) rotate(0.016831) scale(22.1463 18.6372)">
<stop offset="0.22" stop-color="white" stop-opacity="0"/>
<stop offset="1" stop-opacity="0.5"/>
</radialGradient>
</defs>
</svg>
